<?xml version="1.0" encoding="UTF-8" standalone="no"?>
<svg
   xmlns:dc="http://purl.org/dc/elements/1.1/"
   xmlns:cc="http://creativecommons.org/ns#"
   xmlns:rdf="http://www.w3.org/1999/02/22-rdf-syntax-ns#"
   xmlns:svg="http://www.w3.org/2000/svg"
   xmlns="http://www.w3.org/2000/svg"
   xmlns:sodipodi="http://sodipodi.sourceforge.net/DTD/sodipodi-0.dtd"
   xmlns:inkscape="http://www.inkscape.org/namespaces/inkscape"
   width="1052.3622"
   height="744.09448"
   id="svg3336"
   version="1.1"
   inkscape:version="0.91 r13725"
   sodipodi:docname="ErgoDOX Case Layer 2 Spacer - Right - filled.svg">
  <metadata
     id="metadata3382">
    <rdf:RDF>
      <cc:Work
         rdf:about="">
        <dc:format>image/svg+xml</dc:format>
        <dc:type
           rdf:resource="http://purl.org/dc/dcmitype/StillImage" />
        <dc:title></dc:title>
      </cc:Work>
    </rdf:RDF>
  </metadata>
  <sodipodi:namedview
     pagecolor="#ffffff"
     bordercolor="#666666"
     borderopacity="1"
     objecttolerance="10"
     gridtolerance="10"
     guidetolerance="10"
     inkscape:pageopacity="0"
     inkscape:pageshadow="2"
     inkscape:window-width="1305"
     inkscape:window-height="889"
     id="namedview3380"
     showgrid="false"
     inkscape:zoom="0.92933785"
     inkscape:cx="423.00625"
     inkscape:cy="373.63327"
     inkscape:window-x="-8"
     inkscape:window-y="-8"
     inkscape:window-maximized="1"
     inkscape:current-layer="g3354" />
  <desc
     id="desc3338">C:\Users\fkoran\Dropbox\keyboard\Ergodox\ErgoDOX Acrylic Case - Designed by Litster\Standard\Right\ErgoDOX Case Layer 2 Spacer - Right.dxf - scale = 1.000000, origin = (0.000000, 0.000000), auto = False</desc>
  <defs
     id="defs3340">
    <marker
       refY="0"
       refX="0"
       style="overflow:visible"
       id="DistanceX"
       orient="auto">
      <path
         style="stroke:#000000;stroke-width:0.01mm"
         d="M 3,-3 -3,3 M 0,-5 0,5"
         id="path3343"
         inkscape:connector-curvature="0" />
    </marker>
    <pattern
       height="8"
       width="8"
       patternUnits="userSpaceOnUse"
       y="0"
       x="0"
       id="Hatch">
      <path
         linecap="square"
         stroke="#000000"
         stroke-width="0.25"
         d="M8 4 l-4,4"
         id="path3346" />
      <path
         linecap="square"
         stroke="#000000"
         stroke-width="0.25"
         d="M6 2 l-4,4"
         id="path3348" />
      <path
         linecap="square"
         stroke="#000000"
         stroke-width="0.25"
         d="M4 0 l-4,4"
         id="path3350" />
    </pattern>
    <symbol
       id="*Model_Space" />
    <symbol
       id="*Paper_Space" />
  </defs>
  <g
     inkscape:label="0"
     inkscape:groupmode="layer"
     id="g3354"
     transform="translate(0,-308.2677)">
    <path
       id="path3378"
       style="fill:#000000;fill-opacity:1;fill-rule:nonzero;stroke:#0000ff;stroke-width:0.01mm;stroke-linecap:round"
       d="m 328.71543,414.56693 0,47.83464 -45.25086,0 0,-47.83464 z m 351.59953,8.85827 0,69.09448 -116.15272,0 0,-7.08661 -142.5087,0 0,-45.52087 42.51969,0 0,-16.487 216.14173,0 z m -410.3183,352.77168 -44.50181,0 c -1.98823,0 -3.6,-1.61177 -3.6,-3.6 l 0,-264.6 c 0,-1.98823 1.61177,-3.6 3.6,-3.6 l 126,0 c 1.92924,0 3.71192,-1.02923 4.67654,-2.7 0.64308,-1.11384 1.83153,-1.8 3.11769,-1.8 l 59.70577,0 c 2.20043,0 4.18078,-1.33515 5.00594,-3.375 0.55011,-1.3599 1.87034,-2.25 3.33729,-2.25 l 63.41355,0 c 1.46695,0 2.78718,0.8901 3.33729,2.25 0.82516,2.03985 2.80551,3.375 5.00593,3.375 l 58.5,0 c 1.98823,0 3.6,1.61177 3.6,3.6 l 0,2.25 c 0,2.98234 2.41766,5.4 5.4,5.4 l 159.49184,0 c 1.95692,0 3.54331,1.58639 3.54331,3.54331 l 0,264.71338 c 0,1.95692 -1.58639,3.54331 -3.54331,3.54331 l -24.49184,0 c -2.98234,0 -5.4,2.41766 -5.4,5.4 l 0,58.5 c 0,1.98823 -1.61177,3.6 -3.6,3.6 l -129.6,0 c -1.98823,0 -3.6,-1.61177 -3.6,-3.6 l 0,-2.25 c 0,-2.98234 -2.41766,-5.4 -5.4,-5.4 l -59.15677,0 c -1.46695,0 -2.78718,-0.8901 -3.33729,-2.25 -0.82516,-2.03985 -2.80551,-3.375 -5.00594,-3.375 l -54.9,0 c -2.20042,0 -4.18077,1.33515 -5.00593,3.375 -0.55011,1.3599 -1.87034,2.25 -3.33729,2.25 l -62.75678,0 c -1.98823,0 -3.6,-1.61177 -3.6,-3.6 l 0,-54 c 0,-2.98234 -2.41766,-5.4 -5.4,-5.4 l -51.31098,0 c -3.95006,0 -6.56343,4.10217 -4.89406,7.68214 l 51.73312,110.94203 c 0.84026,1.80194 0.0607,3.94387 -1.74128,4.78413 l -178.63327,83.29806 c -1.80194,0.84026 -3.94387,0.0607 -4.78413,-1.74128 L 78.566187,802.52869 c -0.840258,-1.80194 -0.06066,-3.94387 1.741282,-4.78413 L 197.76496,742.97323 c 1.80194,-0.84026 3.94387,-0.0607 4.78413,1.74128 l 24.72317,53.01901 c 1.26039,2.70291 4.47329,3.87231 7.1762,2.61192 l 37.06963,-17.28585 c 3.49148,-1.6281 2.33098,-6.86272 -1.52143,-6.86271 z m 466.33019,-385.06468 -196.68763,0 -32.97042,18.11666 -37.91792,0 -32.88088,-18.11666 -67.59,0 -49.18004,18.11701 -26.01992,0 L 243.9,391.1322 l -28.74685,0 A 24.80315,24.80315 0 0 0 190.35,415.93535 l 0,279.52689 a 24.80315,24.80315 0 0 1 -14.32162,22.47963 L 57.645657,773.13992 a 24.80315,24.80315 0 0 0 -11.997793,32.96183 l 91.999796,197.29585 a 24.80315,24.80315 0 0 0 32.95978,11.998 L 452.54122,883.95523 a 24.80315,24.80315 0 0 1 10.48046,-2.32303 l 273.30517,0 A 24.80315,24.80315 0 0 0 761.13,856.82906 l 0,-440.89371 A 24.80315,24.80315 0 0 0 736.32685,391.1322 Z m -2.70665,22.19484 c -0.004,-7.09096 10.63427,-7.09096 10.62992,0 0.004,7.09096 -10.63427,7.09096 -10.62992,0 z m 0,440.48533 c -0.004,-7.09096 10.63427,-7.09096 10.62992,0 0.004,7.09096 -10.63427,7.09096 -10.62992,0 z m -284.903,12.07018 c -0.004,-7.09096 10.63427,-7.09096 10.62992,0 0.004,7.09096 -10.63427,7.09096 -10.62992,0 z M 153.5517,996.38431 c 0,-7.08662 10.62993,-7.08662 10.62993,0 0,7.08659 -10.62993,7.08659 -10.62993,0 z M 59.34779,794.35883 c 0,-7.08661 10.629922,-7.08661 10.629922,0 0,7.08661 -10.629922,7.08661 -10.629922,0 z M 207.25238,413.32704 c -0.004,-7.09096 10.63427,-7.09096 10.62992,0 0.004,7.09096 -10.63427,7.09096 -10.62992,0 z m 189.50766,-6.44484 c -0.004,-7.09096 10.63427,-7.09096 10.62992,0 0.004,7.09096 -10.63427,7.09096 -10.62992,0 z" />
  </g>
</svg>
