<?xml version="1.0" encoding="UTF-8" standalone="no"?>
<svg
   xmlns:dc="http://purl.org/dc/elements/1.1/"
   xmlns:cc="http://creativecommons.org/ns#"
   xmlns:rdf="http://www.w3.org/1999/02/22-rdf-syntax-ns#"
   xmlns:svg="http://www.w3.org/2000/svg"
   xmlns="http://www.w3.org/2000/svg"
   xmlns:sodipodi="http://sodipodi.sourceforge.net/DTD/sodipodi-0.dtd"
   xmlns:inkscape="http://www.inkscape.org/namespaces/inkscape"
   width="1052.3622"
   height="744.09448"
   id="svg3336"
   version="1.1"
   inkscape:version="0.91 r13725"
   sodipodi:docname="ErgoDOX Case Layer 2 Spacer - Right.svg">
  <metadata
     id="metadata3382">
    <rdf:RDF>
      <cc:Work
         rdf:about="">
        <dc:format>image/svg+xml</dc:format>
        <dc:type
           rdf:resource="http://purl.org/dc/dcmitype/StillImage" />
        <dc:title></dc:title>
      </cc:Work>
    </rdf:RDF>
  </metadata>
  <sodipodi:namedview
     pagecolor="#ffffff"
     bordercolor="#666666"
     borderopacity="1"
     objecttolerance="10"
     gridtolerance="10"
     guidetolerance="10"
     inkscape:pageopacity="0"
     inkscape:pageshadow="2"
     inkscape:window-width="1305"
     inkscape:window-height="889"
     id="namedview3380"
     showgrid="false"
     inkscape:zoom="0.92933785"
     inkscape:cx="237.92824"
     inkscape:cy="373.63327"
     inkscape:window-x="-8"
     inkscape:window-y="-8"
     inkscape:window-maximized="1"
     inkscape:current-layer="g3354" />
  <desc
     id="desc3338">C:\Users\fkoran\Dropbox\keyboard\Ergodox\ErgoDOX Acrylic Case - Designed by Litster\Standard\Right\ErgoDOX Case Layer 2 Spacer - Right.dxf - scale = 1.000000, origin = (0.000000, 0.000000), auto = False</desc>
  <defs
     id="defs3340">
    <marker
       refY="0"
       refX="0"
       style="overflow:visible"
       id="DistanceX"
       orient="auto">
      <path
         style="stroke:#000000;stroke-width:0.01mm"
         d="M 3,-3 -3,3 M 0,-5 0,5"
         id="path3343"
         inkscape:connector-curvature="0" />
    </marker>
    <pattern
       height="8"
       width="8"
       patternUnits="userSpaceOnUse"
       y="0"
       x="0"
       id="Hatch">
      <path
         linecap="square"
         stroke="#000000"
         stroke-width="0.25"
         d="M8 4 l-4,4"
         id="path3346" />
      <path
         linecap="square"
         stroke="#000000"
         stroke-width="0.25"
         d="M6 2 l-4,4"
         id="path3348" />
      <path
         linecap="square"
         stroke="#000000"
         stroke-width="0.25"
         d="M4 0 l-4,4"
         id="path3350" />
    </pattern>
    <symbol
       id="*Model_Space" />
    <symbol
       id="*Paper_Space" />
  </defs>
  <g
     inkscape:label="0"
     inkscape:groupmode="layer"
     id="g3354"
     transform="translate(0,-308.2677)">
    <path
       style="fill:#000000;fill-opacity:1;fill-rule:evenodd;stroke:#0000ff;stroke-width:0.01mm"
       d="m 396.76004,406.8822 c -0.004,-7.09096 10.63427,-7.09096 10.62992,0 0.004,7.09096 -10.63427,7.09096 -10.62992,0 z"
       id="path3356"
       inkscape:connector-curvature="0"
       sodipodi:nodetypes="ccc" />
    <path
       style="fill:#000000;fill-opacity:1;fill-rule:evenodd;stroke:#0000ff;stroke-width:0.01mm"
       d="m 207.25238,413.32704 c -0.004,-7.09096 10.63427,-7.09096 10.62992,0 0.004,7.09096 -10.63427,7.09096 -10.62992,0 z"
       id="path3358"
       inkscape:connector-curvature="0"
       sodipodi:nodetypes="ccc" />
    <path
       style="fill:#000000;fill-opacity:1;fill-rule:evenodd;stroke:#0000ff;stroke-width:0.01mm"
       d="m 59.34779,794.35883 c 0,-7.08661 10.629922,-7.08661 10.629922,0 0,7.08661 -10.629922,7.08661 -10.629922,0 z"
       id="path3360"
       inkscape:connector-curvature="0"
       sodipodi:nodetypes="sss" />
    <path
       style="fill:#000000;fill-opacity:1;fill-rule:evenodd;stroke:#0000ff;stroke-width:0.01mm"
       d="m 153.5517,996.38431 c 0,-7.08662 10.62993,-7.08662 10.62993,0 0,7.08659 -10.62993,7.08659 -10.62993,0 z"
       id="path3362"
       inkscape:connector-curvature="0"
       sodipodi:nodetypes="sss" />
    <path
       style="fill:#000000;fill-opacity:1;fill-rule:evenodd;stroke:#0000ff;stroke-width:0.01mm"
       d="m 448.7172,865.88255 c -0.004,-7.09096 10.63427,-7.09096 10.62992,0 0.004,7.09096 -10.63427,7.09096 -10.62992,0 z"
       id="path3364"
       inkscape:connector-curvature="0"
       sodipodi:nodetypes="ccc" />
    <path
       style="fill:#000000;fill-opacity:1;fill-rule:evenodd;stroke:#0000ff;stroke-width:0.01mm"
       d="m 733.6202,853.81237 c -0.004,-7.09096 10.63427,-7.09096 10.62992,0 0.004,7.09096 -10.63427,7.09096 -10.62992,0 z"
       id="path3366"
       inkscape:connector-curvature="0"
       sodipodi:nodetypes="ccc" />
    <path
       style="fill:#000000;fill-opacity:1;fill-rule:evenodd;stroke:#0000ff;stroke-width:0.01mm"
       d="m 733.6202,413.32704 c -0.004,-7.09096 10.63427,-7.09096 10.62992,0 0.004,7.09096 -10.63427,7.09096 -10.62992,0 z"
       id="path3368"
       inkscape:connector-curvature="0"
       sodipodi:nodetypes="ccc" />
    <path
       style="fill:#000000;stroke:#0000ff;stroke-width:0.01mm;stroke-linecap:round;fill-opacity:1;fill-rule:evenodd"
       d="m 736.32685,391.1322 -196.68763,0 -32.97042,18.11666 -37.91792,0 -32.88088,-18.11666 -67.59,0 -49.18004,18.11701 -26.01992,0 L 243.9,391.1322 l -28.74685,0 A 24.80315,24.80315 0 0 0 190.35,415.93535 l 0,279.52689 a 24.80315,24.80315 0 0 1 -14.32162,22.47963 L 57.645657,773.13992 a 24.80315,24.80315 0 0 0 -11.997793,32.96183 l 91.999796,197.29585 a 24.80315,24.80315 0 0 0 32.95978,11.998 L 452.54122,883.95523 a 24.80315,24.80315 0 0 1 10.48046,-2.32303 l 273.30517,0 A 24.80315,24.80315 0 0 0 761.13,856.82906 l 0,-440.89371 A 24.80315,24.80315 0 0 0 736.32685,391.1322 Z"
       id="path3372"
       inkscape:connector-curvature="0" />
    <path
       style="fill:#000000;fill-opacity:1;fill-rule:evenodd;stroke:#0000ff;stroke-width:0.01mm;stroke-linecap:round"
       d="m 269.99666,776.19688 -44.50181,0 c -1.98823,0 -3.6,-1.61177 -3.6,-3.6 l 0,-264.6 c 0,-1.98823 1.61177,-3.6 3.6,-3.6 l 126,0 c 1.92924,0 3.71192,-1.02923 4.67654,-2.7 0.64308,-1.11384 1.83153,-1.8 3.11769,-1.8 l 59.70577,0 c 2.20043,0 4.18078,-1.33515 5.00594,-3.375 0.55011,-1.3599 1.87034,-2.25 3.33729,-2.25 l 63.41355,0 c 1.46695,0 2.78718,0.8901 3.33729,2.25 0.82516,2.03985 2.80551,3.375 5.00593,3.375 l 58.5,0 c 1.98823,0 3.6,1.61177 3.6,3.6 l 0,2.25 c 0,2.98234 2.41766,5.4 5.4,5.4 l 159.49184,0 c 1.95692,0 3.54331,1.58639 3.54331,3.54331 l 0,264.71338 c 0,1.95692 -1.58639,3.54331 -3.54331,3.54331 l -24.49184,0 c -2.98234,0 -5.4,2.41766 -5.4,5.4 l 0,58.5 c 0,1.98823 -1.61177,3.6 -3.6,3.6 l -129.6,0 c -1.98823,0 -3.6,-1.61177 -3.6,-3.6 l 0,-2.25 c 0,-2.98234 -2.41766,-5.4 -5.4,-5.4 l -59.15677,0 c -1.46695,0 -2.78718,-0.8901 -3.33729,-2.25 -0.82516,-2.03985 -2.80551,-3.375 -5.00594,-3.375 l -54.9,0 c -2.20042,0 -4.18077,1.33515 -5.00593,3.375 -0.55011,1.3599 -1.87034,2.25 -3.33729,2.25 l -62.75678,0 c -1.98823,0 -3.6,-1.61177 -3.6,-3.6 l 0,-54 c 0,-2.98234 -2.41766,-5.4 -5.4,-5.4 l -51.31098,0 c -3.95006,0 -6.56343,4.10217 -4.89406,7.68214 l 51.73312,110.94203 c 0.84026,1.80194 0.0607,3.94387 -1.74128,4.78413 l -178.63327,83.29806 c -1.80194,0.84026 -3.94387,0.0607 -4.78413,-1.74128 L 78.566187,802.52869 c -0.840258,-1.80194 -0.06066,-3.94387 1.741282,-4.78413 L 197.76496,742.97323 c 1.80194,-0.84026 3.94387,-0.0607 4.78413,1.74128 l 24.72317,53.01901 c 1.26039,2.70291 4.47329,3.87231 7.1762,2.61192 l 37.06963,-17.28585 c 3.49148,-1.6281 2.33098,-6.86272 -1.52143,-6.86271 z"
       id="path3374"
       inkscape:connector-curvature="0"
       sodipodi:nodetypes="ssssssssssssssssssssssssssssssssssssssssssssssssssssss" />
    <path
       style="fill:#000000;stroke:#0000ff;stroke-width:0.01mm;stroke-linecap:round;fill-opacity:1;fill-rule:evenodd"
       d="m 680.31496,423.4252 0,69.09448 -116.15272,0 0,-7.08661 -142.5087,0 0,-45.52087 42.51969,0 0,-16.487 216.14173,0 z"
       id="path3376"
       inkscape:connector-curvature="0" />
    <path
       style="fill:#000000;fill-opacity:1;fill-rule:evenodd;stroke:#0000ff;stroke-width:0.01mm;stroke-linecap:round"
       d="m 328.71543,414.56693 0,47.83464 -45.25086,0 0,-47.83464 z"
       id="path3378"
       inkscape:connector-curvature="0"
       sodipodi:nodetypes="ccccc" />
    <g
       style="fill:#000000;stroke:#ff0000;stroke-width:0.01mm;fill-opacity:1;fill-rule:evenodd"
       id="text3420">
      <path
         d="m 474.37613,859.0202 0,9.78516 5.44922,0 0,-3.26172 q 0,-0.29297 0.11719,-0.41992 0.11718,-0.12695 0.30273,-0.12695 0.17578,0 0.29297,0.12695 0.11719,0.11719 0.11719,0.41992 l 0,4.08203 -9.0625,0 q -0.29297,0 -0.41993,-0.11719 -0.12695,-0.11718 -0.12695,-0.29296 0,-0.18555 0.12695,-0.29297 0.12696,-0.11719 0.41993,-0.11719 l 1.95312,0 0,-9.78516 -1.95312,0 q -0.29297,0 -0.41993,-0.10742 -0.12695,-0.11719 -0.12695,-0.30273 0,-0.18555 0.12695,-0.29297 0.12696,-0.11719 0.41993,-0.11719 l 4.73632,0 q 0.29297,0 0.41993,0.11719 0.12695,0.10742 0.12695,0.29297 0,0.18554 -0.12695,0.30273 -0.12696,0.10742 -0.41993,0.10742 l -1.95312,0 z"
         id="path3357"
         inkscape:connector-curvature="0"
         style="fill:#000000;fill-opacity:1;fill-rule:evenodd" />
      <path
         d="m 484.25894,868.80536 6.29883,0 0,-0.32227 q 0,-0.29297 0.11719,-0.41992 0.11718,-0.12695 0.30273,-0.12695 0.17578,0 0.29297,0.12695 0.11719,0.12695 0.11719,0.41992 l 0,1.14258 -7.92969,0 0,-1.21094 q 2.5,-2.24609 4.86328,-4.57031 1.10352,-1.08398 1.51367,-1.5918 0.41016,-0.50781 0.55664,-0.88867 0.15625,-0.39062 0.15625,-0.78125 0,-1.05468 -0.84961,-1.86523 -0.8496,-0.81055 -2.05078,-0.81055 -1.07422,0 -1.90429,0.61524 -0.83008,0.61523 -1.07422,1.52343 -0.0586,0.23438 -0.14649,0.30274 -0.11718,0.0976 -0.27343,0.0976 -0.16602,0 -0.28321,-0.10742 -0.10742,-0.11719 -0.10742,-0.27344 0,-0.46875 0.50781,-1.26953 0.51758,-0.80078 1.41602,-1.25976 0.9082,-0.45899 1.85547,-0.45899 1.5332,0 2.63672,1.06446 1.10351,1.06445 1.10351,2.41211 0,0.5664 -0.18554,1.04492 -0.18555,0.46875 -0.63477,1.03515 -0.43945,0.55664 -1.5918,1.68946 -2.89062,2.85156 -4.70703,4.42383 l 0,0.0586 z"
         id="path3359"
         inkscape:connector-curvature="0"
         style="fill:#000000;fill-opacity:1;fill-rule:evenodd" />
      <path
         d="m 515.95816,863.38544 0,1.17187 -8.36914,0 0,-1.17187 8.36914,0 z"
         id="path3361"
         inkscape:connector-curvature="0"
         style="fill:#000000;fill-opacity:1;fill-rule:evenodd" />
      <path
         d="m 533.08707,864.52802 0,4.27734 1.51367,0 q 0.30273,0 0.42969,0.11719 0.12695,0.10742 0.12695,0.29297 0,0.17578 -0.12695,0.29296 -0.12696,0.11719 -0.42969,0.11719 l -3.4375,0 q -0.29297,0 -0.41992,-0.11719 -0.12696,-0.11718 -0.12696,-0.29296 0,-0.18555 0.12696,-0.29297 0.12695,-0.11719 0.41992,-0.11719 l 1.10351,0 0,-9.78516 -1.10351,0 q -0.29297,0 -0.41992,-0.10742 -0.12696,-0.11719 -0.12696,-0.30273 0,-0.18555 0.12696,-0.29297 0.12695,-0.11719 0.41992,-0.11719 l 4.96094,0 q 1.5332,0 2.57812,0.97656 1.05469,0.9668 1.05469,2.1875 0,0.87891 -0.6543,1.66016 -0.64453,0.77148 -2.16797,1.28906 0.87891,0.60547 1.50391,1.36719 0.625,0.76172 2.00195,3.125 l 0.625,0 q 0.29297,0 0.41992,0.11719 0.12696,0.10742 0.12696,0.29297 0,0.17578 -0.12696,0.29296 -0.12695,0.11719 -0.41992,0.11719 l -1.09375,0 q -1.52344,-2.72461 -2.36328,-3.65234 -0.83008,-0.92774 -1.91406,-1.44531 l -2.60742,0 z m 0,-0.82032 2.23632,0 q 1.07422,0 1.94336,-0.39062 0.87891,-0.39063 1.26954,-0.91797 0.40039,-0.52734 0.40039,-1.07422 0,-0.82031 -0.83008,-1.5625 -0.82031,-0.74219 -2.00196,-0.74219 l -3.01757,0 0,4.6875 z"
         id="path3363"
         inkscape:connector-curvature="0"
         style="fill:#000000;fill-opacity:1;fill-rule:evenodd" />
      <path
         d="m 548.15543,856.95966 0,2.11914 -1.21094,0 0,-2.11914 1.21094,0 z m 0.0293,4.20898 0,7.63672 3.22266,0 q 0.30273,0 0.42969,0.11719 0.12695,0.10742 0.12695,0.29297 0,0.17578 -0.12695,0.29296 -0.12696,0.11719 -0.42969,0.11719 l -7.26563,0 q -0.29296,0 -0.41992,-0.11719 -0.12695,-0.11718 -0.12695,-0.29296 0,-0.18555 0.12695,-0.29297 0.12696,-0.11719 0.41992,-0.11719 l 3.22266,0 0,-6.80664 -2.39258,0 q -0.29297,0 -0.42969,-0.11719 -0.12695,-0.11719 -0.12695,-0.29297 0,-0.18554 0.12695,-0.30273 0.12696,-0.11719 0.42969,-0.11719 l 3.21289,0 z"
         id="path3365"
         inkscape:connector-curvature="0"
         style="fill:#000000;fill-opacity:1;fill-rule:evenodd" />
      <path
         d="m 562.50113,862.67255 0,-1.50391 1.92383,0 q 0.29297,0 0.41992,0.11719 0.12695,0.11719 0.12695,0.30273 0,0.17578 -0.12695,0.29297 -0.12695,0.11719 -0.41992,0.11719 l -1.10352,0 0,8.19336 q 0,0.82031 -0.35156,1.46484 -0.23438,0.42969 -0.78125,0.88867 -0.54688,0.45899 -0.99609,0.6543 -0.44922,0.19531 -1.20118,0.19531 l -2.32422,0 q -0.29296,0 -0.41992,-0.11718 -0.12695,-0.10743 -0.12695,-0.29297 0,-0.18555 0.12695,-0.30274 0.12696,-0.11719 0.41992,-0.11719 l 2.35352,0.01 q 0.72266,0 1.29883,-0.37109 0.58594,-0.3711 0.9668,-1.08399 0.21484,-0.41015 0.21484,-1.04492 l 0,-2.46094 q -1.31836,1.80664 -3.39844,1.80664 -1.68945,0 -2.91992,-1.25 -1.2207,-1.25976 -1.2207,-3.02734 0,-1.76758 1.2207,-3.01758 1.23047,-1.25 2.91992,-1.25 2.08008,0 3.39844,1.79688 z m 0,2.4707 q 0,-1.44531 -0.99609,-2.44141 -0.98633,-0.99609 -2.36329,-0.99609 -1.37695,0 -2.36328,1.00586 -0.98633,0.99609 -0.98633,2.43164 0,1.44531 0.98633,2.45117 0.98633,0.9961 2.36328,0.9961 1.37696,0 2.36329,-0.9961 0.99609,-1.00586 0.99609,-2.45117 z"
         id="path3367"
         inkscape:connector-curvature="0"
         style="fill:#000000;fill-opacity:1;fill-rule:evenodd" />
      <path
         d="m 569.03433,857.36981 0,5.04883 q 0.78125,-0.84961 1.49414,-1.19141 0.72266,-0.35156 1.61133,-0.35156 0.95703,0 1.62109,0.3418 0.67383,0.33203 1.12305,1.03515 0.44922,0.69336 0.44922,1.46485 l 0,5.08789 0.91797,0 q 0.30273,0 0.41992,0.11719 0.12695,0.10742 0.12695,0.29297 0,0.17578 -0.12695,0.29296 -0.11719,0.11719 -0.41992,0.11719 l -2.66602,0 q -0.30273,0 -0.42968,-0.11719 -0.12696,-0.11718 -0.12696,-0.29296 0,-0.18555 0.12696,-0.29297 0.12695,-0.11719 0.42968,-0.11719 l 0.91797,0 0,-5.0293 q 0,-0.88867 -0.64453,-1.48437 -0.63476,-0.59571 -1.77734,-0.59571 -0.89844,0 -1.53321,0.43946 -0.45898,0.3125 -1.51367,1.47461 l 0,5.19531 0.92774,0 q 0.29297,0 0.41992,0.11719 0.12695,0.10742 0.12695,0.29297 0,0.17578 -0.12695,0.29296 -0.12695,0.11719 -0.41992,0.11719 l -2.67578,0 q -0.29297,0 -0.41993,-0.11719 -0.12695,-0.11718 -0.12695,-0.29296 0,-0.18555 0.12695,-0.29297 0.12696,-0.11719 0.41993,-0.11719 l 0.92773,0 0,-10.60547 -1.10352,0 q -0.29296,0 -0.41992,-0.11719 -0.12695,-0.11718 -0.12695,-0.30273 0,-0.17578 0.12695,-0.29297 0.12696,-0.11719 0.41992,-0.11719 l 1.92383,0 z"
         id="path3369"
         inkscape:connector-curvature="0"
         style="fill:#000000;fill-opacity:1;fill-rule:evenodd" />
      <path
         d="m 582.04214,861.16864 4.45313,0 q 0.29297,0 0.41992,0.11719 0.12695,0.11719 0.12695,0.30273 0,0.17578 -0.12695,0.29297 -0.12695,0.11719 -0.41992,0.11719 l -4.45313,0 0,5.45898 q 0,0.71289 0.56641,1.19141 0.57617,0.47851 1.67969,0.47851 0.83008,0 1.79687,-0.24414 0.9668,-0.2539 1.50391,-0.5664 0.19531,-0.12696 0.32227,-0.12696 0.15625,0 0.27343,0.12696 0.11719,0.11719 0.11719,0.2832 0,0.14649 -0.12695,0.27344 -0.3125,0.32226 -1.52344,0.70312 -1.20117,0.3711 -2.30469,0.3711 -1.43554,0 -2.28515,-0.67383 -0.84961,-0.67383 -0.84961,-1.81641 l 0,-5.45898 -1.51368,0 q -0.29296,0 -0.41992,-0.11719 -0.12695,-0.11719 -0.12695,-0.30273 0,-0.17578 0.12695,-0.29297 0.12696,-0.11719 0.41992,-0.11719 l 1.51368,0 0,-2.42187 q 0,-0.29297 0.11718,-0.41993 0.11719,-0.12695 0.29297,-0.12695 0.18555,0 0.30274,0.12695 0.11718,0.12696 0.11718,0.41993 l 0,2.42187 z"
         id="path3371"
         inkscape:connector-curvature="0"
         style="fill:#000000;fill-opacity:1;fill-rule:evenodd" />
      <path
         d="m 608.12613,858.19989 0,13.13477 1.99219,0 q 0.29297,0 0.41992,0.10742 0.12695,0.11719 0.12695,0.30273 0,0.18555 -0.12695,0.29297 -0.12695,0.11719 -0.41992,0.11719 l -2.8125,0 0,-14.78516 2.8125,0 q 0.29297,0 0.41992,0.11719 0.12695,0.11719 0.12695,0.30273 0,0.17579 -0.12695,0.29297 -0.12695,0.11719 -0.41992,0.11719 l -1.99219,0 z"
         id="path3373"
         inkscape:connector-curvature="0"
         style="fill:#000000;fill-opacity:1;fill-rule:evenodd" />
      <path
         d="m 622.41324,861.70575 q 0,-0.2832 0.11719,-0.41016 0.11718,-0.12695 0.29296,-0.12695 0.18555,0 0.30274,0.12695 0.11719,0.12696 0.11719,0.42969 l 0,1.40625 q 0,0.29297 -0.11719,0.41992 -0.11719,0.12696 -0.30274,0.12696 -0.16601,0 -0.2832,-0.10743 -0.10742,-0.10742 -0.12695,-0.35156 -0.0586,-0.58594 -0.60547,-0.9668 -0.80078,-0.54687 -2.11914,-0.54687 -1.37695,0 -2.13867,0.55664 -0.57617,0.41992 -0.57617,0.9375 0,0.58594 0.68359,0.97656 0.46875,0.27344 1.77734,0.41992 1.70899,0.18555 2.37305,0.41993 0.94727,0.34179 1.40625,0.94726 0.46875,0.60547 0.46875,1.3086 0,1.04492 -1.00586,1.86523 -1.00586,0.81055 -2.94922,0.81055 -1.94336,0 -3.18359,-0.98633 0,0.33203 -0.0391,0.42969 -0.0391,0.0977 -0.14649,0.16601 -0.0977,0.0684 -0.22461,0.0684 -0.17578,0 -0.29297,-0.12695 -0.11718,-0.12695 -0.11718,-0.41992 l 0,-1.68946 q 0,-0.29297 0.10742,-0.41992 0.11718,-0.12695 0.30273,-0.12695 0.17578,0 0.29297,0.12695 0.12695,0.11719 0.12695,0.32227 0,0.44922 0.22461,0.75195 0.3418,0.46875 1.08399,0.78125 0.75195,0.30273 1.83593,0.30273 1.60157,0 2.38282,-0.5957 0.78125,-0.5957 0.78125,-1.25976 0,-0.76172 -0.79102,-1.22071 -0.80078,-0.45898 -2.33398,-0.61523 -1.52344,-0.15625 -2.1875,-0.41016 -0.66407,-0.2539 -1.03516,-0.76172 -0.37109,-0.50781 -0.37109,-1.09375 0,-1.05468 1.03515,-1.66992 1.03516,-0.625 2.47071,-0.625 1.69922,0 2.76367,0.83008 z"
         id="path3375"
         inkscape:connector-curvature="0"
         style="fill:#000000;fill-opacity:1;fill-rule:evenodd" />
      <path
         d="m 628.60464,861.16864 0,1.49414 q 0.73243,-0.88867 1.57227,-1.33789 0.83984,-0.44922 1.98242,-0.44922 1.21094,0 2.23633,0.56641 1.02539,0.5664 1.58203,1.58203 0.56641,1.00586 0.56641,2.11914 0,1.76758 -1.26953,3.02734 -1.25977,1.25 -3.10547,1.25 -2.19727,0 -3.56446,-1.78711 l 0,4.94141 1.99219,0 q 0.29297,0 0.41992,0.10742 0.12696,0.11719 0.12696,0.30274 0,0.17578 -0.12696,0.29297 -0.12695,0.11718 -0.41992,0.11718 l -3.91601,0 q -0.29297,0 -0.41993,-0.11718 -0.12695,-0.10743 -0.12695,-0.29297 0,-0.18555 0.12695,-0.30274 0.12696,-0.10742 0.41993,-0.10742 l 1.10351,0 0,-10.57617 -1.10351,0 q -0.29297,0 -0.41993,-0.11719 -0.12695,-0.11719 -0.12695,-0.30273 0,-0.17578 0.12695,-0.29297 0.12696,-0.11719 0.41993,-0.11719 l 1.92382,0 z m 7.10938,3.97461 q 0,-1.41602 -1.03516,-2.42188 -1.02539,-1.01562 -2.50976,-1.01562 -1.49414,0 -2.5293,1.01562 -1.03516,1.01563 -1.03516,2.42188 0,1.41602 1.03516,2.43164 1.03516,1.01563 2.5293,1.01563 1.47461,0 2.50976,-1.00586 1.03516,-1.01563 1.03516,-2.44141 z"
         id="path3377"
         inkscape:connector-curvature="0"
         style="fill:#000000;fill-opacity:1;fill-rule:evenodd" />
      <path
         d="m 646.04605,869.62567 0,-1.18164 q -1.78711,1.50391 -3.81836,1.50391 -1.47461,0 -2.30469,-0.74219 -0.83007,-0.75195 -0.83007,-1.83594 0,-1.1914 1.09375,-2.08008 1.09375,-0.88867 3.19336,-0.88867 0.5664,0 1.23046,0.0781 0.66407,0.0684 1.43555,0.22461 l 0,-1.32813 q 0,-0.67383 -0.625,-1.17187 -0.625,-0.49805 -1.875,-0.49805 -0.95703,0 -2.68555,0.55664 -0.3125,0.0977 -0.40039,0.0977 -0.15625,0 -0.27343,-0.11719 -0.10743,-0.11719 -0.10743,-0.29297 0,-0.16602 0.0977,-0.26367 0.13672,-0.14649 1.10352,-0.40039 1.52343,-0.41016 2.30468,-0.41016 1.55274,0 2.42188,0.77149 0.86914,0.76171 0.86914,1.72851 l 0,5.42969 1.09375,0 q 0.30273,0 0.42969,0.11719 0.12695,0.10742 0.12695,0.29297 0,0.17578 -0.12695,0.29296 -0.12696,0.11719 -0.42969,0.11719 l -1.92383,0 z m 0,-4.08203 q -0.57617,-0.16602 -1.2207,-0.24414 -0.64453,-0.0781 -1.35742,-0.0781 -1.78711,0 -2.79297,0.77149 -0.76172,0.57617 -0.76172,1.37695 0,0.74219 0.57617,1.25 0.58594,0.50781 1.69922,0.50781 1.06445,0 1.97266,-0.41992 0.91796,-0.42968 1.88476,-1.35742 l 0,-1.80664 z"
         id="path3379"
         inkscape:connector-curvature="0"
         style="fill:#000000;fill-opacity:1;fill-rule:evenodd" />
      <path
         d="m 659.10269,861.99872 0,-0.27344 q 0,-0.30273 0.11719,-0.42969 0.11719,-0.12695 0.29297,-0.12695 0.18554,0 0.30273,0.12695 0.11719,0.12696 0.11719,0.42969 l 0,1.85547 q -0.01,0.30273 -0.12695,0.42969 -0.10743,0.12695 -0.29297,0.12695 -0.16602,0 -0.28321,-0.10742 -0.10742,-0.11719 -0.12695,-0.38086 -0.0586,-0.69336 -0.91797,-1.31836 -0.84961,-0.625 -2.29492,-0.625 -1.82617,0 -2.77344,1.14258 -0.94726,1.14258 -0.94726,2.61719 0,1.59179 1.04492,2.62695 1.04492,1.03515 2.70508,1.03515 0.95703,0 1.94336,-0.35156 0.99609,-0.35156 1.79687,-1.13281 0.20508,-0.19531 0.36133,-0.19531 0.16602,0 0.27344,0.11718 0.11719,0.10743 0.11719,0.27344 0,0.41992 -0.98633,1.06446 -1.5918,1.04492 -3.54492,1.04492 -1.98243,0 -3.26172,-1.25977 -1.26953,-1.26953 -1.26953,-3.21289 0,-1.98242 1.29882,-3.29101 1.3086,-1.3086 3.29102,-1.3086 1.88476,0 3.16406,1.12305 z"
         id="path3381"
         inkscape:connector-curvature="0"
         style="fill:#000000;fill-opacity:1;fill-rule:evenodd" />
      <path
         d="m 672.1105,865.59247 -8.35937,0 q 0.21484,1.5918 1.32812,2.56836 1.12305,0.96679 2.77344,0.96679 0.91797,0 1.92383,-0.30273 1.00586,-0.30273 1.64062,-0.80078 0.18555,-0.14649 0.32227,-0.14649 0.15625,0 0.27344,0.12696 0.11719,0.11719 0.11719,0.2832 0,0.16602 -0.15625,0.32227 -0.46875,0.48828 -1.66993,0.91797 -1.1914,0.41992 -2.45117,0.41992 -2.10937,0 -3.52539,-1.37696 -1.40625,-1.38671 -1.40625,-3.34961 0,-1.7871 1.31836,-3.0664 1.32813,-1.2793 3.28125,-1.2793 2.01172,0 3.31055,1.31836 1.29883,1.30859 1.27929,3.39844 z m -0.83007,-0.83008 q -0.24414,-1.35742 -1.28907,-2.20703 -1.03515,-0.84961 -2.4707,-0.84961 -1.43555,0 -2.4707,0.83984 -1.03516,0.83985 -1.28907,2.2168 l 7.51954,0 z"
         id="path3383"
         inkscape:connector-curvature="0"
         style="fill:#000000;fill-opacity:1;fill-rule:evenodd" />
      <path
         d="m 678.68277,861.16864 0,2.07031 q 1.60156,-1.44531 2.39258,-1.85547 0.80078,-0.41992 1.47461,-0.41992 0.73242,0 1.35742,0.49805 0.63476,0.48828 0.63476,0.74219 0,0.18554 -0.12695,0.3125 -0.11719,0.11718 -0.30273,0.11718 -0.0977,0 -0.16602,-0.0293 -0.0684,-0.0391 -0.2539,-0.22461 -0.3418,-0.3418 -0.59571,-0.46875 -0.2539,-0.12696 -0.49804,-0.12696 -0.53711,0 -1.29883,0.42969 -0.75196,0.42969 -2.61719,2.09961 l 0,4.49219 3.63281,0 q 0.30274,0 0.42969,0.11719 0.12695,0.10742 0.12695,0.29297 0,0.17578 -0.12695,0.29296 -0.12695,0.11719 -0.42969,0.11719 l -6.43554,0 q -0.29297,0 -0.41993,-0.10742 -0.12695,-0.11719 -0.12695,-0.29297 0,-0.16601 0.11719,-0.27344 0.12695,-0.11718 0.42969,-0.11718 l 1.98242,0 0,-6.83594 -1.51367,0 q -0.29297,0 -0.41993,-0.11719 -0.12695,-0.11719 -0.12695,-0.30273 0,-0.17578 0.11719,-0.29297 0.12695,-0.11719 0.42969,-0.11719 l 2.33398,0 z"
         id="path3385"
         inkscape:connector-curvature="0"
         style="fill:#000000;fill-opacity:1;fill-rule:evenodd" />
      <path
         d="m 691.27066,871.33466 0,-13.13477 -1.98242,0 q -0.29297,0 -0.41992,-0.11719 -0.12696,-0.11718 -0.12696,-0.29297 0,-0.18554 0.12696,-0.30273 0.12695,-0.11719 0.41992,-0.11719 l 2.8125,0 0,14.78516 -2.8125,0 q -0.29297,0 -0.41992,-0.11719 -0.12696,-0.10742 -0.12696,-0.29297 0,-0.17578 0.12696,-0.29297 0.12695,-0.11718 0.41992,-0.11718 l 1.98242,0 z"
         id="path3387"
         inkscape:connector-curvature="0"
         style="fill:#000000;fill-opacity:1;fill-rule:evenodd" />
    </g>
  </g>
</svg>
