<?xml version="1.0" encoding="UTF-8" standalone="no"?>
<svg
   xmlns:dc="http://purl.org/dc/elements/1.1/"
   xmlns:cc="http://creativecommons.org/ns#"
   xmlns:rdf="http://www.w3.org/1999/02/22-rdf-syntax-ns#"
   xmlns:svg="http://www.w3.org/2000/svg"
   xmlns="http://www.w3.org/2000/svg"
   xmlns:sodipodi="http://sodipodi.sourceforge.net/DTD/sodipodi-0.dtd"
   xmlns:inkscape="http://www.inkscape.org/namespaces/inkscape"
   width="744.094488189"
   height="1052.36220472"
   id="svg3336"
   version="1.1"
   inkscape:version="0.91 r13725"
   sodipodi:docname="experimant.svg">
  <metadata
     id="metadata3382">
    <rdf:RDF>
      <cc:Work
         rdf:about="">
        <dc:format>image/svg+xml</dc:format>
        <dc:type
           rdf:resource="http://purl.org/dc/dcmitype/StillImage" />
        <dc:title></dc:title>
      </cc:Work>
    </rdf:RDF>
  </metadata>
  <sodipodi:namedview
     pagecolor="#ffffff"
     bordercolor="#666666"
     borderopacity="1"
     objecttolerance="10"
     gridtolerance="10"
     guidetolerance="10"
     inkscape:pageopacity="0"
     inkscape:pageshadow="2"
     inkscape:window-width="1858"
     inkscape:window-height="1177"
     id="namedview3380"
     showgrid="false"
     inkscape:zoom="3.7173514"
     inkscape:cx="523.29362"
     inkscape:cy="577.68349"
     inkscape:window-x="-8"
     inkscape:window-y="-8"
     inkscape:window-maximized="1"
     inkscape:current-layer="g3354" />
  <desc
     id="desc3338">C:\Users\fkoran\Dropbox\keyboard\Ergodox\ErgoDOX Acrylic Case - Designed by Litster\Standard\Right\ErgoDOX Case Layer 2 Spacer - Right.dxf - scale = 1.000000, origin = (0.000000, 0.000000), auto = False</desc>
  <defs
     id="defs3340">
    <marker
       refY="0.0"
       refX="0.0"
       style="overflow:visible"
       id="DistanceX"
       orient="auto">
      <path
         style="stroke:#000000; stroke-width:0.5"
         d="M 3,-3 L -3,3 M 0,-5 L  0,5"
         id="path3343" />
    </marker>
    <pattern
       height="8"
       width="8"
       patternUnits="userSpaceOnUse"
       y="0"
       x="0"
       id="Hatch">
      <path
         linecap="square"
         stroke="#000000"
         stroke-width="0.25"
         d="M8 4 l-4,4"
         id="path3346" />
      <path
         linecap="square"
         stroke="#000000"
         stroke-width="0.25"
         d="M6 2 l-4,4"
         id="path3348" />
      <path
         linecap="square"
         stroke="#000000"
         stroke-width="0.25"
         d="M4 0 l-4,4"
         id="path3350" />
    </pattern>
    <symbol
       id="*Model_Space" />
    <symbol
       id="*Paper_Space" />
  </defs>
  <g
     inkscape:label="0"
     inkscape:groupmode="layer"
     id="g3354">
    <path
       style="stroke:#0000FF;fill:none"
       d="M 407.389961,406.882205 A 5.314961,5.314961 -0.000000 1 0 396.760039,406.882205 5.314961,5.314961 -0.000000 1 0 407.389961,406.882205 z"
       id="path3356" />
    <path
       style="stroke:#0000FF;fill:none"
       d="M 217.882298,413.327042 A 5.314961,5.314961 -0.000000 1 0 207.252377,413.327042 5.314961,5.314961 -0.000000 1 0 217.882298,413.327042 z"
       id="path3358" />
    <path
       style="stroke:#0000FF;fill:none"
       d="M 69.977712,794.358832 A 5.314961,5.314961 -0.000000 1 0 59.347790,794.358832 5.314961,5.314961 -0.000000 1 0 69.977712,794.358832 z"
       id="path3360" />
    <path
       style="stroke:#0000FF;fill:none"
       d="M 164.181626,996.384312 A 5.314961,5.314961 -0.000000 1 0 153.551705,996.384312 5.314961,5.314961 -0.000000 1 0 164.181626,996.384312 z"
       id="path3362" />
    <path
       style="stroke:#0000FF;fill:none"
       d="M 459.347120,865.882548 A 5.314961,5.314961 -0.000000 1 0 448.717199,865.882548 5.314961,5.314961 -0.000000 1 0 459.347120,865.882548 z"
       id="path3364" />
    <path
       style="stroke:#0000FF;fill:none"
       d="M 744.250124,853.812368 A 5.314961,5.314961 -0.000000 1 0 733.620203,853.812368 5.314961,5.314961 -0.000000 1 0 744.250124,853.812368 z"
       id="path3366" />
    <path
       style="stroke:#0000FF;fill:none"
       d="M 744.250123,413.327042 A 5.314961,5.314961 -0.000000 1 0 733.620202,413.327042 5.314961,5.314961 -0.000000 1 0 744.250123,413.327042 z"
       id="path3368" />
    <path
       style="stroke:#0000FF;fill:none"
       d="M 407.390120,406.882547 A 5.314961,5.314961 -0.000000 1 0 396.760199,406.882547 5.314961,5.314961 -0.000000 1 0 407.390120,406.882547 z"
       id="path3370" />
    <path
       style="stroke:#0000FF;fill:none;stroke-linecap: round"
       d="M 736.326850,391.132205 L 539.639217,391.132205 L 506.668801,409.248862 L 468.750880,409.248862 L 435.870000,391.132205 L 368.280000,391.132205 L 319.099961,409.249205 L 293.080039,409.249205 L 243.900000,391.132205 L 215.153150,391.132205 A 24.803150,24.803150 0.0 0 0 190.350000,415.935354 L 190.350000,695.462236 A 24.803150,24.803150 0.0 0 1 176.028380,717.941866 L 57.645657,773.139925 A 24.803150,24.803150 0.0 0 0 45.647864,806.101746 L 137.647658,1003.397628 A 24.803150,24.803150 0.0 0 0 170.607441,1015.395566 L 452.541222,883.955226 A 24.803150,24.803150 0.0 0 1 463.021682,881.632205 L 736.326850,881.632205 A 24.803150,24.803150 0.0 0 0 761.130000,856.829055 L 761.130000,415.935354 A 24.803150,24.803150 0.0 0 0 736.326850,391.132205 z"
       id="path3372" />
    <path
       style="stroke:#0000FF;fill:none;stroke-linecap: round"
       d="M 271.518091,783.059589 L 234.448461,800.345442 A 5.400000,5.400000 0.0 0 1 227.272260,797.733518 L 202.549092,744.714513 A 3.600000,3.600000 0.0 0 0 197.764958,742.973230 L 80.307469,797.744557 A 3.600000,3.600000 0.0 0 0 78.566187,802.528691 L 161.864246,981.161956 A 3.600000,3.600000 0.0 0 0 166.648380,982.903238 L 345.281645,899.605178 A 3.600000,3.600000 0.0 0 0 347.022927,894.821045 L 295.289811,783.879020 A 5.400000,5.400000 0.0 0 1 300.183873,776.196881 L 351.494854,776.196881 A 5.400000,5.400000 0.0 0 1 356.894854,781.596881 L 356.894854,835.596881 A 3.600000,3.600000 0.0 0 0 360.494854,839.196881 L 423.251630,839.196881 A 3.600000,3.600000 0.0 0 0 426.588920,836.946881 A 5.400000,5.400000 0.0 0 1 431.594854,833.571881 L 486.494854,833.571881 A 5.400000,5.400000 0.0 0 1 491.500788,836.946881 A 3.600000,3.600000 0.0 0 0 494.838077,839.196881 L 553.994854,839.196881 A 5.400000,5.400000 0.0 0 1 559.394854,844.596881 L 559.394854,846.846881 A 3.600000,3.600000 0.0 0 0 562.994854,850.446881 L 692.594854,850.446881 A 3.600000,3.600000 0.0 0 0 696.194854,846.846881 L 696.194854,788.346881 A 5.400000,5.400000 0.0 0 1 701.594854,782.946881 L 726.086693,782.946881 A 3.543307,3.543307 0.0 0 0 729.630000,779.403574 L 729.630000,514.690188 A 3.543307,3.543307 0.0 0 0 726.086693,511.146881 L 566.594854,511.146881 A 5.400000,5.400000 0.0 0 1 561.194854,505.746881 L 561.194854,503.496881 A 3.600000,3.600000 0.0 0 0 557.594854,499.896881 L 499.094854,499.896881 A 5.400000,5.400000 0.0 0 1 494.088920,496.521881 A 3.600000,3.600000 0.0 0 0 490.751630,494.271881 L 427.338077,494.271881 A 3.600000,3.600000 0.0 0 0 424.000788,496.521881 A 5.400000,5.400000 0.0 0 1 418.994854,499.896881 L 359.289082,499.896881 A 3.600000,3.600000 0.0 0 0 356.171391,501.696881 A 5.400000,5.400000 0.0 0 1 351.494854,504.396881 L 225.494854,504.396881 A 3.600000,3.600000 0.0 0 0 221.894854,507.996881 L 221.894854,772.596881 A 3.600000,3.600000 0.0 0 0 225.494854,776.196881 L 269.996665,776.196881 A 3.600000,3.600000 0.0 0 1 271.518091,783.059589 z"
       id="path3374" />
    <path
       style="stroke:#0000FF;fill:none;stroke-linecap: round"
       d="M 680.314961,423.425197 L 680.314961,492.519685 L 564.162236,492.519685 L 564.162236,485.433071 L 421.653543,485.433071 L 421.653543,439.912205 L 464.173228,439.912205 L 464.173228,423.425197 L 680.314961,423.425197 z"
       id="path3376" />
    <path
       style="stroke:#0000FF;fill:none;stroke-linecap: round"
       d="M 283.464567,414.566929 L 283.464567,462.401575 L 328.715433,462.401575 L 328.715433,414.566929 L 283.464567,414.566929 z"
       id="path3378" />
  </g>
</svg>
